<mxfile host="app.diagrams.net" modified="2023-12-20T10:03:54.917Z" agent="Mozilla/5.0 (Windows NT 10.0; Win64; x64) AppleWebKit/537.36 (KHTML, like Gecko) Chrome/120.0.0.0 Safari/537.36" etag="OBonJOAdNiqOP3SUb1Gn" version="22.1.11" type="github">
  <diagram name="Page-1" id="f5gzhhZ4VD5YHNC8935i">
    <mxGraphModel dx="641" dy="555" grid="1" gridSize="10" guides="1" tooltips="1" connect="1" arrows="1" fold="1" page="1" pageScale="1" pageWidth="850" pageHeight="1100" math="0" shadow="0">
      <root>
        <mxCell id="0" />
        <mxCell id="1" parent="0" />
        <mxCell id="-KaWBcL7nJfM03Le1wyL-10" value="" style="verticalLabelPosition=bottom;sketch=0;aspect=fixed;html=1;verticalAlign=top;strokeColor=none;align=center;outlineConnect=0;shape=mxgraph.citrix.laptop_2;" vertex="1" parent="1">
          <mxGeometry x="510" y="63.5" width="116" height="86.5" as="geometry" />
        </mxCell>
        <mxCell id="-KaWBcL7nJfM03Le1wyL-11" value="" style="verticalLabelPosition=bottom;sketch=0;aspect=fixed;html=1;verticalAlign=top;strokeColor=none;align=center;outlineConnect=0;shape=mxgraph.citrix.desktop;" vertex="1" parent="1">
          <mxGeometry x="626" y="166" width="89" height="98" as="geometry" />
        </mxCell>
        <mxCell id="-KaWBcL7nJfM03Le1wyL-14" value="" style="fontColor=#0066CC;verticalAlign=top;verticalLabelPosition=bottom;labelPosition=center;align=center;html=1;outlineConnect=0;fillColor=#CCCCCC;strokeColor=#6881B3;gradientColor=none;gradientDirection=north;strokeWidth=2;shape=mxgraph.networks.wireless_modem;" vertex="1" parent="1">
          <mxGeometry x="280" y="171" width="100" height="85" as="geometry" />
        </mxCell>
        <mxCell id="-KaWBcL7nJfM03Le1wyL-15" value="" style="fontColor=#0066CC;verticalAlign=top;verticalLabelPosition=bottom;labelPosition=center;align=center;html=1;outlineConnect=0;fillColor=#CCCCCC;strokeColor=#6881B3;gradientColor=none;gradientDirection=north;strokeWidth=2;shape=mxgraph.networks.router;" vertex="1" parent="1">
          <mxGeometry x="275" y="331" width="110" height="30" as="geometry" />
        </mxCell>
        <mxCell id="-KaWBcL7nJfM03Le1wyL-16" value="" style="fontColor=#0066CC;verticalAlign=top;verticalLabelPosition=bottom;labelPosition=center;align=center;html=1;outlineConnect=0;fillColor=#CCCCCC;strokeColor=#6881B3;gradientColor=none;gradientDirection=north;strokeWidth=2;shape=mxgraph.networks.mobile;" vertex="1" parent="1">
          <mxGeometry x="551" y="230" width="34" height="68" as="geometry" />
        </mxCell>
        <mxCell id="-KaWBcL7nJfM03Le1wyL-19" value="" style="fontColor=#0066CC;verticalAlign=top;verticalLabelPosition=bottom;labelPosition=center;align=center;html=1;outlineConnect=0;fillColor=#CCCCCC;strokeColor=#6881B3;gradientColor=none;gradientDirection=north;strokeWidth=2;shape=mxgraph.networks.web_server;" vertex="1" parent="1">
          <mxGeometry x="50" y="60" width="80" height="80" as="geometry" />
        </mxCell>
        <mxCell id="-KaWBcL7nJfM03Le1wyL-22" value="" style="fontColor=#0066CC;verticalAlign=top;verticalLabelPosition=bottom;labelPosition=center;align=center;html=1;outlineConnect=0;fillColor=#CCCCCC;strokeColor=#6881B3;gradientColor=none;gradientDirection=north;strokeWidth=2;shape=mxgraph.networks.web_server;" vertex="1" parent="1">
          <mxGeometry x="140" y="60" width="80" height="80" as="geometry" />
        </mxCell>
        <mxCell id="-KaWBcL7nJfM03Le1wyL-23" value="" style="fontColor=#0066CC;verticalAlign=top;verticalLabelPosition=bottom;labelPosition=center;align=center;html=1;outlineConnect=0;fillColor=#CCCCCC;strokeColor=#6881B3;gradientColor=none;gradientDirection=north;strokeWidth=2;shape=mxgraph.networks.web_server;" vertex="1" parent="1">
          <mxGeometry x="90" y="150" width="80" height="80" as="geometry" />
        </mxCell>
        <mxCell id="-KaWBcL7nJfM03Le1wyL-26" value="" style="endArrow=none;dashed=1;html=1;rounded=0;shadow=0;" edge="1" parent="1">
          <mxGeometry width="50" height="50" relative="1" as="geometry">
            <mxPoint x="240" y="420" as="sourcePoint" />
            <mxPoint x="240" y="50" as="targetPoint" />
          </mxGeometry>
        </mxCell>
        <mxCell id="-KaWBcL7nJfM03Le1wyL-27" value="WAN (Internet)" style="text;strokeColor=none;align=center;fillColor=none;html=1;verticalAlign=middle;whiteSpace=wrap;rounded=0;" vertex="1" parent="1">
          <mxGeometry x="80" y="20" width="100" height="30" as="geometry" />
        </mxCell>
        <mxCell id="-KaWBcL7nJfM03Le1wyL-31" value="modem" style="text;strokeColor=none;align=center;fillColor=none;html=1;verticalAlign=middle;whiteSpace=wrap;rounded=0;" vertex="1" parent="1">
          <mxGeometry x="300" y="356" width="60" height="30" as="geometry" />
        </mxCell>
        <mxCell id="-KaWBcL7nJfM03Le1wyL-32" value="router" style="text;strokeColor=none;align=center;fillColor=none;html=1;verticalAlign=middle;whiteSpace=wrap;rounded=0;" vertex="1" parent="1">
          <mxGeometry x="300" y="250" width="60" height="30" as="geometry" />
        </mxCell>
        <mxCell id="-KaWBcL7nJfM03Le1wyL-41" value="" style="shape=stencil(lVrbchU3EPwav6p01+iZkP+gChNcIZgy5Pb3aZVL61VrT5/wZg4zK2lu3TPSQ3r3/fOHb48P0X//8fL8++PfTx9/fH5IvzzE+PT18+PL0w/89ZDeP6R3n55fHn97ef7z68fXf3/7MCTHX388/zW+8M+rnnepDKXo/339IWaXX3/59VX+y9PXk3x0JSzyobuebstnV/wqX50X8sVZXuWTC/m2fHM5rvLexXBbvjvfF/nmQrstjq/Z+n0cSJgnwD7r/qOrYvshu2Dr/l2KQr64Vhd5Pw1wLd/m597kvRfy5qyRvNrPWL7Q/qMJ+TiXf7NPE/aJyZVK9u/q+8X51f5tGuxavrpM9ocDRHzie50SoLiiFPo0yHFiRKgIoeRdJRMVmZIpsM/wSxBbSomTIFVp1ZRdpCxAnHehUOYRDwX4QSlUF1e/lTgz71qhubhaqbRZmq4VzIX1DDW6oBQ6h2qtLmkF8kNDsgmzZu/aukJLMptzcIVWqK6oFSKX39ZdE7GUE9dTiy4Kx2XAxbqCZZfUlhDMaVUAIqgtIUXXQ1uTNQahltfwNptV4VrBZgafFJKoGrm7XHlLXYRG8VyGcegu6nA5MvhQKNPQ1wpx84NGkpJmnTvFUhWHhkJfD93CTNprhezqukLNMkVLcWn1NH4xdejK6InoSiKWoNCokHkZfCgqjWqr136wWeeO6h1nwF8qVD+r0IkhKT/UMGPzUIgS41DnGmGcJg1wE60AjiccjbroNxJmIkOh0LcjBGHV2pytVgUtzKIsVdt4ZJHBWvuMtEOhTcC4Jp5+EpcTE06KqQZOB3Alhbotci0G+WkilIAeFHvJS+bQMpOZQQSUQplk/8ifLKtMawyiqGxRBGszphpIQdkAdMZEJEgRCraV1hHvogcAAlJ4Q0FZydLGHLIz4ThAJhGyqkEUYEBWqkkfujLqoioU4TgAWg1sVpUPgMy2Ur7SJUxb5xQtR1m4bt38NOKhkCX76cG19QxAySCqRt+629wlAPXkjBQAemqFMrvfI+NMb6nOwngi90VZCUYkADp68GsFm4Fwqt4KE6FAIGoS1iHPxGF2ONfyiBtiJhJyIZ+5p1dwBXnaf3dBWbRv4OPlzAMKnQAXFUFUmKFAK2geMxTIZ03m/zgzIW6/Z1QeZHjZOQyvUdwFSXygQGV1zD5UOhufIXodSDZnNadDB71CDmxWhVZQSBvNuJM7F+RNhYZx94Pgq1qhroc2XVVtUrW37FFYBbcFnrBIr3W2KbJfy2/7vyPPTM/LjnXkzuYCNfIJ3jOehyzHH2MJCrw6d3nzEJTPds8LP6lgjOfpjpnaPOIJqeShN4qBZqyrSC3cvY0mVq2Que1GfyhjO7IfBolRW4rcjFU9kQHFCMTcyhzq3CIxgeiqOS/OYFuZROehRspgbhQaaCQUiQE3pIEj+gJVV8E+E5WMOgnsLX5LVkJfkAVlGAyaKINpMhm4k2kmm2IDmdxXEKGBPoNXqDK82+64ojvKrfVpR+d+q7liUq8vY8aEh6K1ylga/d7qabQNptq3zG00UlTNotGzckdpEk9gE+JKY8ipVgjM0VOTc1zkF03GUpwgfGt2QHUJtVXdElXjPmOAtFIAZhJXarJ9g18bDRuqzDiULcqHWCSrr9vgF32GKYXErQ9WUBmHWt09n0GV++o5+AbGqcvGjdmnNA19S4GYQPZy6FNsU+gyNMa0g0DR9JS1crQiHJOaUJatXdKMDF1220b8CkVL4pFM1w0TcJ86PnADadbApLI3Pe32fBHSNT4MN60ZN4ipODTKFt8ken3XmhuPu8cS6p6i8lXiOIS+ayGyATOpSpbz7FNPjlDDaNReAoieZPTlsCl4fV8UuGyYrgLISLroA5tI6u6xzzJ0JESfZPlawTb+U/QK243UmB7r61CiZKjPCiDS4aZDwcsbqZRnzp+AWs2VRmVcz4CcUqQPoElnGLNifY9NiJJMRiuqO9FKrKnarIGyBEFNJvXbpOpQOOjHtUKdr0/+Z182QPOnLipi2mYUUSJ73GD0zhOZ6Dm8TV47jBOuXVaTI43xJmWbIKg3MoUJXJs3Kdfyec5s3vYv38hEnjh0mZxj+kcjmSAfsWwvQIJ+Y7WRPVhMDZWP+/PTXEw1fBueI6ZUYsaNSzY52fPb5CDKKZpn5IS8ggTPM7TxfSlPj1FQadSA2M9x8ElezUqPVx4n2qmqit+IcJdvXbbxUzR5vbrL69cJ+340wm7njVXe3sKeFJ9FPq/Y/HWns/jZN4z35fHH24PJT09fvry+tzz/Pz+wxE+vjzPT+/8A);lineShape=1;strokeColor=#66B2FF;" vertex="1" parent="1">
          <mxGeometry x="385.78364074543833" y="187.2631751714922" width="183.92658434534974" height="21.641907047646782" as="geometry" />
        </mxCell>
        <mxCell id="-KaWBcL7nJfM03Le1wyL-42" value="LAN (Home network)" style="text;strokeColor=none;align=center;fillColor=none;html=1;verticalAlign=middle;whiteSpace=wrap;rounded=0;" vertex="1" parent="1">
          <mxGeometry x="430" y="30" width="140" height="30" as="geometry" />
        </mxCell>
        <mxCell id="-KaWBcL7nJfM03Le1wyL-44" value="" style="shape=stencil(lVvHkt02EPyavaIADNKcHf7DVZatLcuSS5bT33vgNbgPPWRzddswTSJM6Al8km9+f//Db++ecvz9y+dPv7z76/nHL++f5NunnJ8/vn/3+fmL/fQk3z3JNz99+vzu58+f/vj448vvv/0wJedPv376cz7h7xecBu0TlOM/L3+IoY///vD9i/iH54+beJJNPIdKxEfIbRMvoedr8R7aLt5C7tfiLWjcxEeIysT//+8STzHEdi1fg+yPTzmkeC1fQq27fAmJrEfCAHnbLjlMCTnt8oM+P4e231Wyy65MPu2nn1No5Vo+hbGfz1wheX4KFXTHtIFcbwoC8m2dwIV8Lrt8XzdyJb+fp+nPoPuVvMvbeZL7SqGMTV5SiFS+7+cpmepzCrrrs0iI9H7Hfj5S1hsv9BnsRWpQYfK6n6e0UMnzq5PvIRL5jvpp8oXsdyzX9CBP9S0u9T0AgzqI6Q8SAjK7MTvSjoDCVM58VkFAJR7UXIJ/AwOYv/d7YLeWzzbNrsH0InsAe8Ph9R8Awt4w0DJv7kFiEPeGTFTbLLG4PSSiS2ZapTkAuWmzleKWlNiSjkN8BBBtLfHkWNkplby0/426VCR0BxjMY1iIBRNVvqS2PNADgPokU43didkxdHZKuhjKAUg0KtQYBrxBqNuuCf1wMeZA4lq1QL4rX+GOuFoc3lWj9KW/V4AGS7KLY9RIFpNYgBopVasFiaMdQ2PB4eBOByDzJblw9fqXqz2MXflqpU7AAAXe0KgjsxUDua7GSNiSMvLlOqi22iGC16i61PFKWytQbCMlzIA01P0NLS/turK4umtrk2Xl54COTqAVytvMCUCcbpUGdjOXtNtDM6bBHFlZROQAjJUMXLnKsXuNpqGxJSVMdTonh+a26q58PVPqYI4R0pFu7pkFxYGq0SuPQH1t8QC0IERbLcYB4+udej4D5P1Y+1i+8BxQQ9t1qds9kJs2ACQNI1Lls8A+9k2PxO+hLDp1AISySgMAORmF6tLkGgDgefPcw36sY1Dls1MCzzd0Ja9XAPB8yusKM1XYl6RmIewNffGvA3BjDx2VT4Wn52Ot+AEwmC4ZddgtTu1mmJuJix0dgBoiUe/JyCICmAEZFREHUEawTNX2m9aDmF45Y0gH9LDyK3dfd4vTTssek4ooAirjGpbSDAQMFqcTkkQdNBO1OA2pvXKyXgVjnPL8wagIHitn90ZFmgcQ5TNmgafEy2fGLLo/JVaeM8coDkBs2ogCZLsTQI61FYxAE0A23RrmcXeAIy9865L07FgJoEckJxNAHJkRheE3zd4gWAi5A9SVqr7xlCzuA5u5MaA+3Bs69UszjCcHYJXntFTtEUC0dWSnrX0lCOcAcffQKVkfFQtYytMBC+PF7YEVQkY/OSVmohb30YDaqhqfA9SFrEZt2uK+ughUyBss7itoa6GJn8V9DOyFpmX27wRcQ2h8mFHZMYHENt1WGH8gJywHMsAAQKJhdyozsEpdcfUcMHAPBsjEpvWouT2QRGZxBgDuPXg9XXV5oUcAW5I6ZmxL4gDwS0NpnDYAsnvl2qpYhDcAbaA5gFkI1SW3JAOwAq3ftAGoertjNeVjNNRfnAESAzjVmG8gns8r3/Qj7JSces+Egy3JGZABhC2pO88XaRSdAKd8jTmygV7DAMJNFAohBqDO2KX40+KYmxnoWyeAq0b+uje4+tLdHhRd5d0pmcV91T2kGF2adXPVutzQW5XpqwHDke+8OgxXAB/kWHFGu6PGhRu1J32Fm1zFhrdWWlWz58HNzUewe5DQgVY2fqwZa8AGoO7bk+/O92BuyNFKJVFxBhzHpVm6awaGCYTSizNaibqklDCN6qix0smAUVyAUBqCjHyDY3q1kDfS+werfWsGoTzl8DkK7/efZEFKU46TPOvwVW/N5PhIx0muqFT7TrJRDjjJd28APqPme2jd1bBuABUHTe4APpO72UPGurTyNmSLOItzo991uAKqLsJyDuiOxCkNvLUiPZkAtqRycnG0OSWrl/sI4GU1D6BNwuSKwEobncVxgekrWT10uIsbVJdKPykYsUJ2qdg015teU8E+vnZecXWDPzPWs4rr0dF4LCMQ1SgRu7vKR39kYP941qUZwJFpPTo3Vw0FDHKFEiapLiEQWp0R770zjYqzTwNLSrTYIrK80GPqxxo7gr3XWRUgFyeCXfYxeEcu48WNThNkcZ3RWdViS8poD5N+sIvL2B8YQr2GbRoMyNgEbU4JUocRaRYkbs6rc2dsgLYrX+eVDanoZnqnjf+p3tAZbbwd7EpSRlduOnLAdHvhHbmBbL3zyRlxHQjjN528YTbYoKUdaRLkG2xGV5hfKoJOwOhK4Q02aDi3xse2KpZCWqF16dIwgWhCh7RnR2430ZapTZfhAIlOzljYhUJ2uxm9jsj5XgnRFROAjMMIEZ2ROtrLB6BxRpbdBFOl9zCbhG4giVK4jAY0x6z4knCCKfPpHw9InMI5ZzwHiNg0XEbVKLzMPI8VRs86n/NKblatUYuzFQPnK5W3Uh2bKUK9t20R3L35EVYJKa74WBIfxW6YH5fI/VLF8k/hA3pFcL5IeMpuKwZyYgDKKiMmTXPYk8cHcUtiLe2TGVrlAcVNzsw3MOqQkRkLbyhIPNkDG5/LrvItR0n1HNDQVRpAyJKyy+OEl3+yM9EJILqUnQHNYTSypOSq9xPABuldg80AjErPyXsPYB+T5BMA83zzYyK3B0Z0/dA6N4e2XMohP2ixyE22zYlxxkwwggrvf4vbb+ea7cyfT88mnBMyCstyyuQ+lSj0wuIaDDzkhfovs2R4fl4llwt5/Fwl0c+jIlY0zXew3r1rUuRBs5iI89GZZ27ua5jcaFcwYuTPd+cP3YCpUfR+cT1p3ciFPFCXxF1ERsebOo36GRu5qVJ7FOyBJqHt8YJF95Tox5PV1STp1KjzoH2t78r77NpfKUtz1chCe3SuJpxpoFc0dbNN1njCWbpIHZXi1xORcgJd734VZ+NbitfK2xZuivtOHOZ5bhqXOOIa6RywYvoQ6RCjYq2IU9DkPFrkASKuouSrPGUZEVU+8n78134afSNuP7x+hf3T84cPLx9xP/4fv9q2P7188S3f/Qs=);lineShape=1;strokeColor=#66B2FF;" vertex="1" parent="1">
          <mxGeometry x="101.21162157784192" y="230.1433643332116" width="166.62067097573254" height="157.65339763420593" as="geometry" />
        </mxCell>
        <mxCell id="-KaWBcL7nJfM03Le1wyL-45" value="" style="shape=stencil(lVbLUsMwDPyaXDWWbPlxhvIfzNDSDKVl2vL6e2QySSq3EcPNcbKxV7sru/N3p+3j27ojdzofDy/rz/7pvO38fUfU77frY3+WUedXnb/bHI7r5+Phff80PL891i/r6PXwUf/wNeByASwVRe57mPERAv3OPAyAXb+/AJQIFBQgyIw3AAVSVgBOkJIJCKwAsUAOBoCBNIeMgMYKWTZAClAccF4GpASsSZcEriwDIkPWK6Bz4Nwygn1bJqmDM4QIBLEBBCBeBngPsSlTBDRYk5RJs04M0agrMYSklfOQ0VwBnfYGQrY4ULtCQHCGN+pr1P4mYEsHHL02AuomjRVmihOAgQ3ScxEvVkiGmapMTUbFLFbkJiNMVaLR8UuRc9qubAt34eZJajaVq4HRdq2higZAIqnLVGNrsK6hjzoQDN6QurYVrVxtPcaW+CoQc3O77b4r5YrdLKX5el2luUEvAsp/ABTBaW9kEc4gjbGtUnaAltJA2hlJQmvI4Ns+Jolyxv/FF5oASyc0CFw5VXqC2ZTAaRt5NPlGiDo7hKbt0I/lmM4GGk+L2xuiNp1iIoOA7Lfo5NhN9fok+fOoYmy+T0oAGcwXjk2/2w33lcv37QVFpobLjV/9AA==);lineShape=1;strokeColor=#66B2FF;" vertex="1" parent="1">
          <mxGeometry x="279.6012513193966" y="316.7495629094053" width="3.223075511652496" height="3.2248481794399595" as="geometry" />
        </mxCell>
        <mxCell id="-KaWBcL7nJfM03Le1wyL-46" value="" style="shape=stencil(lVjLbhsxDPwaXwlR1POctv8RIE5jNI0DJ339fbk1pJjc9Ri9ORuNJJLDIamd3L093b/udzG8vZ+O3/a/Dg/vTzv5tIvx8PK0Px3e9ddOPu/k7vF42n89HX+8PJz/fr1fVi6/vh9/Ljv8PuNKoCoLKoY/5y+9UEn/vnw5A54PL5eAQoEtIFIoANDGfgPQOqV4HVCFcreARKUDQCWJFhCoARtqp9gMQLdAAN2vVwtI1BkAoje6MjGwoQm1YABlWrUNSBSLBajf0JUU4E4IVAK+kjU6V6rIS0zZujUnYnClWlYAhkarE7O1IXViAeTLVLIFFKr5OiB3ajYfEiZfFirWhhSpAhtSpWDdmpRd4Er672ivJJ0EGC2Rkk1RwVyKiZpNIMkUAYBnukyADDpuAzSu1mjh4YZtt1KycYtt5Oz2AVStybpDBGELFCyRdIeODKBoDeZGApInj5DO9RmqJKtgWAP0SwYOYiWqVUkOlIDFeiUXszZ8vM0iHjSeejEEZJumiYJNhBu0Ll61AyRpatSTWx+AuKiUlOrXgwioVkV265F/st7fRYwY7T/Fc1KOGDFICWYFXohRxrSx3dQVimh9oe7EF2ZYzkNpP/gQkDBG31mUQfHt9Rqe5NY3xDfVtOz3B9VJ+dk9n1HpSEIhOv8I2p+puVJza312oksR5Uv0+RUhH/T+yfKHoaan7O+D9UTzMazyEfFNO81VPiL+6/2DW3+Dn8XrT0P8XPFHBQ/lbxvh+fB/Q3xuvskU2DLqfZL1Z4IVSe1tVn8y7GGX9Z7PaL3yp64KTAcE0ibDCSgLrkjdN5hcBqe2ATzayYsqXEDO6H5Og5YkAKTTqupEVKOAqsASJKfqU1e3vRQorzobxDt1q5sMZM5s1xKZ7QmCO1JVasdsUaNRqnVfWqWM/m67Da/ETusa7G7WM6B2wcgGndBcg6n8ReWvFUqu0c8wn/uU2wlosODoIO06NHV0AFzqfTQoE5Ah+Tis2tiM5yE9ollRKvEWoLgqnkeabwPamK8moMGU69XX2YoLW89eKGuGnVSXUYgvxv0K+N2DHwJ1tEW1Ssnk2n2dttEJup8T46btLThBR2W2ZOpTn6+NytWSSSOTQQYpIFgbFj4CatSwAUB0VSK4CUQBSPpUNlL1ADRTLI9TNnAXKbKNSH7uWo4A/C7iy/qSIiDUS4JFD0Dje2FfRzVyDZ0Q/DNKn7PDNUB0ZKqQTApwGaQAlNT//6x4G6A/Pl4xHw/Pz+dH0Mv/+1dP/XR+MZXPfwE=);lineShape=1;strokeColor=#66B2FF;" vertex="1" parent="1">
          <mxGeometry x="266.6894516408861" y="265.9039854345267" width="21.676865488840804" height="53.59202477862482" as="geometry" />
        </mxCell>
      </root>
    </mxGraphModel>
  </diagram>
</mxfile>
